# xmcd CD database file
#
# Track frame offsets:
#	150
#	14090
#	28720
#	42192
#	48387
#	79200
#	91607
#	117375
#	132182
#	155937
#
# Disc length: 2243 seconds
#
# Revision: 0
# Processed by: cddbd v1.5PL3 Copyright (c) Steve Scherf et al.
# Submitted via: CDex 1.51
#
DISCID=8008c10a
DTITLE=サウンドトラック - NIGHT HEAD 劇場版
DYEAR=1900
DGENRE=Other
TTITLE0=トリノリンゴ
TTITLE1=UNKNOWN
TTITLE2=リーディング
TTITLE3=ロンゴロンゴ
TTITLE4=THE TRIAL
TTITLE5=NIGHT HEAD
TTITLE6=GENUS LOCI
TTITLE7=INNER
TTITLE8=モール
TTITLE9=GLOW HEAD
EXTD=
EXTT0=
EXTT1=
EXTT2=
EXTT3=
EXTT4=
EXTT5=
EXTT6=
EXTT7=
EXTT8=
EXTT9=
PLAYORDER=
